# xmcd
# 
# Track frame offsets:
#     150
#     16612
#     30303
#     45532
#     57293
#     72804
#     87079
#     99704
#     112854
#     124259
#     139228
# 
# Disc length: 2092
# 
# Revision: 3
# Processed by: cddbd v1.5.2PL0 Copyright (c) Steve Scherf et al.
# Submitted via: fre:ac v1.0.17
# 
DISCID=84082a0b
DTITLE=Canaan Smith - Bronco
DYEAR=2015
DGENRE=Country
TTITLE0=Good Kinda Bad
TTITLE1=Stompin' Grounds
TTITLE2=Love You Like That
TTITLE3=Hole In A Bottle
TTITLE4=Stuck
TTITLE5=One Of Those
TTITLE6=Mad Love
TTITLE7=Love At First
TTITLE8=American Muscle
TTITLE9=Two Lane Road
TTITLE10=Bronco
EXTD=
EXTT0=
EXTT1=
EXTT2=
EXTT3=
EXTT4=
EXTT5=
EXTT6=
EXTT7=
EXTT8=
EXTT9=
EXTT10=
PLAYORDER=
